<?xml version="1.0" standalone="no"?><!DOCTYPE svg PUBLIC "-//W3C//DTD SVG 1.1//EN" "http://www.w3.org/Graphics/SVG/1.1/DTD/svg11.dtd"><svg t="1562153453075" class="icon" viewBox="0 0 1024 1024" version="1.1" xmlns="http://www.w3.org/2000/svg" p-id="1367" xmlns:xlink="http://www.w3.org/1999/xlink" width="200" height="200"><defs><style type="text/css"></style></defs><path d="M287.165217 427.408696 287.165217 427.408696c-13.356522 0-22.26087-8.904348-22.26087-20.034783L264.904348 333.913043c0-11.130435 8.904348-20.034783 22.26087-20.034783l0 0c11.130435 0 22.26087 8.904348 22.26087 20.034783l0 73.46087C309.426087 418.504348 300.521739 427.408696 287.165217 427.408696z" p-id="1368"></path><path d="M287.165217 621.078261 287.165217 621.078261c-13.356522 0-22.26087-8.904348-22.26087-20.034783l0-73.46087c0-8.904348 8.904348-20.034783 22.26087-20.034783l0 0c11.130435 0 22.26087 8.904348 22.26087 20.034783l0 73.46087C309.426087 612.173913 300.521739 621.078261 287.165217 621.078261z" p-id="1369"></path><path d="M440.765217 621.078261 440.765217 621.078261c-13.356522 0-22.26087-8.904348-22.26087-20.034783l0-73.46087c0-8.904348 8.904348-20.034783 22.26087-20.034783l0 0c11.130435 0 22.26087 8.904348 22.26087 20.034783l0 73.46087C463.026087 612.173913 451.895652 621.078261 440.765217 621.078261z" p-id="1370"></path><path d="M592.13913 621.078261 592.13913 621.078261c-13.356522 0-22.26087-8.904348-22.26087-20.034783l0-73.46087c0-8.904348 8.904348-20.034783 22.26087-20.034783l0 0c11.130435 0 22.26087 8.904348 22.26087 20.034783l0 73.46087C614.4 612.173913 605.495652 621.078261 592.13913 621.078261z" p-id="1371"></path><path d="M736.834783 621.078261 736.834783 621.078261c-13.356522 0-22.26087-8.904348-22.26087-20.034783l0-73.46087c0-8.904348 8.904348-20.034783 22.26087-20.034783l0 0c11.130435 0 22.26087 8.904348 22.26087 20.034783l0 73.46087C759.095652 612.173913 750.191304 621.078261 736.834783 621.078261z" p-id="1372"></path><path d="M736.834783 427.408696 736.834783 427.408696c-13.356522 0-22.26087-8.904348-22.26087-20.034783L714.573913 333.913043c0-11.130435 8.904348-20.034783 22.26087-20.034783l0 0c11.130435 0 22.26087 8.904348 22.26087 20.034783l0 73.46087C759.095652 418.504348 750.191304 427.408696 736.834783 427.408696z" p-id="1373"></path><path d="M592.13913 427.408696 592.13913 427.408696c-13.356522 0-22.26087-8.904348-22.26087-20.034783L569.878261 333.913043c0-11.130435 8.904348-20.034783 22.26087-20.034783l0 0c11.130435 0 22.26087 8.904348 22.26087 20.034783l0 73.46087C614.4 418.504348 605.495652 427.408696 592.13913 427.408696z" p-id="1374"></path><path d="M440.765217 427.408696 440.765217 427.408696c-13.356522 0-22.26087-8.904348-22.26087-20.034783L418.504348 333.913043c0-11.130435 8.904348-20.034783 22.26087-20.034783l0 0c11.130435 0 22.26087 8.904348 22.26087 20.034783l0 73.46087C463.026087 418.504348 454.121739 427.408696 440.765217 427.408696z" p-id="1375"></path><path d="M776.904348 747.965217 260.452174 747.965217c-11.130435 0-20.034783-11.130435-20.034783-22.26087l0 0c0-11.130435 8.904348-22.26087 20.034783-22.26087l516.452174 0c8.904348 0 20.034783 11.130435 20.034783 22.26087l0 0C796.93913 739.06087 790.26087 747.965217 776.904348 747.965217z" p-id="1376"></path><path d="M518.678261 1001.73913C253.773913 1001.73913 35.617391 785.808696 35.617391 518.678261S251.547826 35.617391 518.678261 35.617391C783.582609 35.617391 1001.73913 251.547826 1001.73913 518.678261S783.582609 1001.73913 518.678261 1001.73913zM518.678261 80.13913c-240.417391 0-438.53913 195.895652-438.53913 438.53913C80.13913 759.095652 276.034783 957.217391 518.678261 957.217391 759.095652 957.217391 957.217391 761.321739 957.217391 518.678261 957.217391 278.26087 759.095652 80.13913 518.678261 80.13913z" p-id="1377"></path></svg>