<?xml version="1.0" standalone="no"?><!DOCTYPE svg PUBLIC "-//W3C//DTD SVG 1.1//EN" "http://www.w3.org/Graphics/SVG/1.1/DTD/svg11.dtd"><svg t="1562153408109" class="icon" viewBox="0 0 1024 1024" version="1.1" xmlns="http://www.w3.org/2000/svg" p-id="1246" xmlns:xlink="http://www.w3.org/1999/xlink" width="200" height="200"><defs><style type="text/css"></style></defs><path d="M662.736 263.616l-26.944 19.68c74.896 51.984 124.032 138.48 124.032 236.56 0 98.144-49.216 184.704-124.224 236.672l27.056 19.76c78.256-58.32 129.152-151.28 129.152-256.352C791.824 414.88 740.96 321.936 662.736 263.616zM430.64 433.152l-27.248 19.92c21.888 14.24 36.432 38.816 36.432 66.88 0 28.08-14.576 52.672-36.496 66.896l27.296 19.936c25.2-20.528 41.312-51.776 41.312-86.816C471.936 484.944 455.824 453.68 430.64 433.152zM543.984 350.352l-27.488 20.08c50.016 31.024 83.44 86.272 83.44 149.472 0 63.232-33.472 118.512-83.552 149.536l27.568 20.144c53.136-37.664 87.936-99.536 87.936-169.632C631.888 449.872 597.104 388.016 543.984 350.352z" p-id="1247"></path><path d="M503.936 935.776c229.664 0 415.856-186.208 415.856-415.856 0-229.664-186.192-415.856-415.856-415.856S88.08 290.256 88.08 519.936C88.08 749.584 274.272 935.776 503.936 935.776zM503.936 135.76c212.112 0 384.064 171.952 384.064 384.048 0 212.112-171.952 384.064-384.064 384.064S119.888 731.92 119.888 519.808C119.888 307.696 291.824 135.76 503.936 135.76z" p-id="1248"></path></svg>